# 3ds Max Wavefront OBJ Exporter v0.99 - (c)2007 guruware
# File Created: 28.09.2024 12:39:31

mtllib Cofre.mtl

#
# object Cofre
#

v  -2.3588 0.0053 -0.8170
v  -2.0502 -0.1509 1.1518
v  -1.1830 0.0522 -0.0748
v  -1.0580 -0.0572 1.1479
v  -0.0268 0.0600 0.0775
v  -0.0268 -0.0493 1.1479
v  1.0045 -0.0572 1.1479
v  1.1295 0.0522 -0.0748
v  1.9967 -0.1509 1.1518
v  2.3053 0.0053 -0.8170
v  1.5709 -0.4439 2.7065
v  0.7428 -0.4204 2.7807
v  1.4264 -0.6079 3.1205
v  1.3092 -0.7407 3.4604
v  0.6373 -0.7447 3.5971
v  -0.0268 -0.4126 2.8080
v  -0.0268 -0.7329 3.6479
v  -0.6908 -0.7447 3.5971
v  -0.7963 -0.4204 2.7807
v  -1.3627 -0.7407 3.4604
v  -1.4799 -0.6079 3.1244
v  -1.6244 -0.4439 2.7065
# 22 vertices

vn 0.2058 0.9649 0.1632
vn 0.1389 0.9865 0.0867
vn -0.1152 0.9543 0.2757
vn -0.0487 0.9865 0.1563
vn 0.0000 0.9544 0.2987
vn 0.0000 0.9872 0.1596
vn 0.0487 0.9865 0.1563
vn 0.1152 0.9543 0.2757
vn -0.1389 0.9865 0.0867
vn -0.2061 0.9648 0.1633
vn -0.0860 0.9572 0.2764
vn 0.0378 0.9532 0.3001
vn -0.0382 0.9346 0.3537
vn 0.0847 0.8741 0.4783
vn 0.0663 0.8862 0.4586
vn -0.0000 0.9564 0.2920
vn 0.0000 0.8937 0.4486
vn -0.0671 0.8858 0.4591
vn -0.0375 0.9532 0.3000
vn -0.0921 0.8755 0.4744
vn 0.0015 0.9189 0.3944
vn 0.0860 0.9578 0.2743
# 22 vertex normals

vt 0.4531 0.5913 0.0000
vt 0.2568 0.6221 0.0000
vt 0.3789 0.7075 0.0000
vt 0.2568 0.7202 0.0000
vt 0.3638 0.8193 0.0000
vt 0.2573 0.8193 0.0000
vt 0.1016 0.6641 0.0000
vt 0.0942 0.7456 0.0000
vt 0.0605 0.6782 0.0000
vt 0.0264 0.6899 0.0000
vt 0.0127 0.7563 0.0000
vt 0.0918 0.8193 0.0000
vt 0.0078 0.8193 0.0000
vt 0.0601 0.6782 0.0000
# 14 texture coords

o Cofre
g Cofre
usemtl Sally_Eyeshadow
s 1
f 1/1/1 2/2/2 3/3/3 
f 2/2/2 4/4/4 3/3/3 
f 3/3/3 4/4/4 5/5/5 
f 4/4/4 6/6/6 5/5/5 
f 6/6/6 7/4/7 5/5/5 
f 5/5/5 7/4/7 8/3/8 
f 7/4/7 9/2/9 8/3/8 
f 8/3/8 9/2/9 10/1/10 
f 9/2/9 7/4/7 11/7/11 
f 7/4/7 12/8/12 11/7/11 
f 11/7/11 12/8/12 13/9/13 
f 13/9/13 12/8/12 14/10/14 
f 14/10/14 12/8/12 15/11/15 
f 12/8/12 16/12/16 15/11/15 
f 15/11/15 16/12/16 17/13/17 
f 17/13/17 16/12/16 18/11/18 
f 16/12/16 19/8/19 18/11/18 
f 18/11/18 19/8/19 20/10/20 
f 20/10/20 19/8/19 21/14/21 
f 21/14/21 19/8/19 22/7/22 
f 19/8/19 4/4/4 22/7/22 
f 22/7/22 4/4/4 2/2/2 
f 7/4/7 6/6/6 12/8/12 
f 12/8/12 6/6/6 16/12/16 
f 16/12/16 6/6/6 19/8/19 
f 6/6/6 4/4/4 19/8/19 
# 0 polygons - 26 triangles

