# 3ds Max Wavefront OBJ Exporter v0.99 - (c)2007 guruware
# File Created: 28.09.2024 12:35:36

mtllib Llanta_derecha_delantera.mtl

#
# object Llanta_delantera_derecha
#

v  0.3328 0.3977 0.2133
v  0.3328 0.2961 -0.4547
v  0.3328 0.4836 -0.0485
v  0.3328 0.4211 -0.3180
v  0.3328 0.2610 0.3383
v  0.3328 -0.0047 0.3969
v  0.3328 -0.2664 0.3148
v  0.3328 -0.3718 -0.3492
v  0.3328 0.0344 -0.5367
v  0.3328 -0.2351 -0.4781
v  0.3328 -0.4539 -0.0914
v  0.3328 -0.3914 0.1781
v  -0.2493 0.0032 0.1976
v  -0.2493 -0.2508 -0.0797
v  -0.2493 0.0266 -0.3375
v  -0.2493 0.2805 -0.0602
v  0.5046 -0.3250 0.0336
v  0.5046 -0.3289 -0.1188
v  0.4421 -0.0008 -0.0524
v  0.5046 0.2102 -0.3024
v  0.5046 0.3039 -0.1930
v  0.5046 0.3078 0.0648
v  0.5046 0.2258 0.1976
v  0.5046 0.5891 -0.0211
v  0.5046 0.5696 0.0687
v  0.5046 0.2492 -0.5328
v  0.5046 0.1672 -0.5758
v  0.5046 -0.0320 -0.3805
v  0.5046 -0.1609 -0.3297
v  0.5046 -0.4461 -0.3492
v  0.5046 -0.3953 -0.4156
v  0.3875 -0.7859 0.1547
v  0.3875 -0.5437 0.1547
v  0.5046 -0.7429 0.2406
v  0.5046 -0.5164 0.2054
v  0.3875 -0.3562 0.0414
v  0.3875 -0.3640 -0.1227
v  0.3875 -0.4929 -0.2946
v  0.3875 -0.6922 -0.4235
v  0.5046 -0.6297 -0.5289
v  0.5046 -0.4890 -0.6813
v  0.3875 -0.3523 -0.4547
v  0.3875 -0.1765 -0.3571
v  0.3875 -0.0320 -0.4156
v  0.3875 0.1086 -0.6071
v  0.3875 0.1789 -0.8219
v  0.5007 0.2766 -0.8102
v  0.5007 0.4485 -0.7164
v  0.5046 -0.6648 0.3929
v  0.3875 -0.4070 -0.7321
v  0.3875 0.5344 -0.6539
v  0.3875 0.3078 -0.5055
v  0.3875 0.2336 -0.3258
v  0.3875 0.3391 -0.2086
v  0.3875 0.6047 -0.0836
v  0.3875 0.7961 -0.1188
v  0.5046 0.8039 -0.0250
v  0.5046 0.7727 0.2054
v  0.3875 0.5539 0.1312
v  0.3875 0.3430 0.0765
v  0.3875 0.2492 0.2250
v  0.3875 0.1946 0.5219
v  0.5046 0.1399 0.5258
v  0.3875 0.2883 0.6976
v  0.5046 0.1985 0.7133
v  0.5046 0.0461 0.5375
v  0.5046 0.0188 0.7445
v  0.3875 -0.0086 0.5453
v  0.3875 -0.0711 0.7601
v  0.3875 0.7375 0.3187
v  0.3875 -0.4500 0.3461
v  0.3875 -0.6218 0.4750
v  0.5046 -0.4773 0.2914
v  0.5046 -0.1648 0.2289
v  0.5046 -0.0398 0.2679
v  0.3875 -0.0437 0.2992
v  0.3875 -0.1804 0.2601
v  0.4890 0.7336 -1.0563
v  0.5984 0.2024 -1.1149
v  0.4890 0.2297 -1.2750
v  0.5984 -0.2742 -1.0914
v  0.4890 -0.3172 -1.2516
v  0.5984 -0.6922 -0.8688
v  0.4890 -0.7976 -0.9938
v  0.5984 -0.9734 -0.4860
v  0.4890 -1.1218 -0.5485
v  0.5984 -1.0593 -0.0172
v  0.4890 -1.2195 -0.0133
v  0.5984 -0.9343 0.4398
v  0.4890 -1.0789 0.5179
v  0.5984 -0.6218 0.7992
v  0.4890 -0.7195 0.9320
v  0.5984 -0.1843 0.9867
v  0.4890 -0.2156 1.1469
v  0.5984 0.2883 0.9672
v  0.4890 0.3313 1.1234
v  0.5984 0.7102 0.7406
v  0.4890 0.8157 0.8656
v  0.5984 0.9875 0.3578
v  0.4890 1.1399 0.4242
v  0.5984 1.0735 -0.1071
v  0.4890 1.2375 -0.1149
v  0.5984 0.9485 -0.5680
v  0.4890 1.0930 -0.6422
v  0.5984 0.6399 -0.9235
v  0.5593 0.1477 -0.8297
v  0.5593 -0.1961 -0.8180
v  0.5593 -0.5047 -0.6539
v  0.5593 -0.7078 -0.3727
v  0.5593 -0.7703 -0.0289
v  0.5593 -0.6804 0.3031
v  0.5593 -0.4539 0.5648
v  0.5593 -0.1336 0.7054
v  0.5593 0.2141 0.6898
v  0.5593 0.5188 0.5258
v  0.5593 0.7258 0.2445
v  0.5593 0.7883 -0.0953
v  0.5593 0.6946 -0.4313
v  0.5593 0.4680 -0.6930
v  -0.4563 0.3235 -0.7985
v  -0.4563 0.7805 -0.2750
v  -0.4563 0.6555 0.4086
v  -0.4563 0.0422 0.7367
v  -0.4563 -0.5984 0.4633
v  -0.4563 -0.7820 -0.2086
v  -0.4563 -0.3718 -0.7711
v  -0.3430 1.0930 -0.6422
v  -0.3430 1.2375 -0.1149
v  -0.3430 1.1399 0.4242
v  -0.3430 0.8157 0.8656
v  -0.3430 0.3313 1.1234
v  -0.3430 -0.2156 1.1469
v  -0.3430 -0.7195 0.9320
v  -0.3430 -1.0789 0.5179
v  -0.3430 -1.2195 -0.0133
v  -0.3430 -1.1218 -0.5485
v  -0.3430 -0.7976 -0.9938
v  -0.3430 -0.3172 -1.2516
v  -0.3430 0.2297 -1.2750
v  -0.3430 0.7336 -1.0563
v  -0.4680 -0.2859 -1.1383
v  -0.4680 0.2102 -1.1617
v  -0.4680 0.6672 -0.9664
v  -0.4680 0.9914 -0.5914
v  -0.4680 1.1242 -0.1110
v  -0.4680 1.0344 0.3773
v  -0.4680 0.7414 0.7797
v  -0.4680 0.3039 1.0140
v  -0.4680 -0.1961 1.0336
v  -0.4680 -0.6492 0.8383
v  -0.4680 -0.9773 0.4633
v  -0.4680 -1.1062 -0.0172
v  -0.4680 -1.0164 -0.5055
v  -0.4680 -0.7234 -0.9078
# 154 vertices

vn 0.4940 0.7118 0.4993
vn 0.4946 0.4947 -0.7146
vn 0.5209 0.8527 0.0387
vn 0.4954 0.7531 -0.4329
vn 0.4941 0.4309 0.7551
vn 0.5257 -0.0367 0.8499
vn 0.4946 -0.4947 0.7146
vn 0.4952 -0.7178 -0.4895
vn 0.5259 0.0379 -0.8497
vn 0.4921 -0.4354 -0.7538
vn 0.5218 -0.8524 -0.0350
vn 0.4954 -0.7531 0.4329
vn -0.4995 -0.0353 0.8656
vn -0.5000 -0.8654 -0.0331
vn -0.5005 0.0367 -0.8649
vn -0.4989 0.8660 0.0344
vn 0.8946 -0.3944 -0.2102
vn 0.8803 -0.4390 0.1800
vn 1.0000 0.0009 0.0003
vn 0.9030 0.4231 -0.0746
vn 0.8696 0.2758 -0.4096
vn 0.9105 0.1635 0.3797
vn 0.8603 0.4861 0.1534
vn 0.9085 0.0902 -0.4081
vn 0.8867 -0.1681 0.4307
vn 0.8949 0.3831 0.2290
vn 0.8963 -0.3697 -0.2450
vn 0.8700 -0.3190 -0.3759
vn 0.8892 0.0362 -0.4560
vn 0.9043 -0.3243 0.2776
vn 0.9062 0.3143 -0.2828
vn 0.5914 0.0000 -0.8064
vn 0.4727 -0.2720 -0.8382
vn 0.8297 -0.0288 -0.5575
vn 0.8802 -0.1798 -0.4392
vn 0.2649 -0.8593 -0.4376
vn 0.2538 -0.9035 0.3453
vn 0.4820 -0.6421 0.5962
vn 0.6584 -0.4867 0.5741
vn 0.9355 -0.2471 0.2525
vn 0.8225 0.5528 -0.1338
vn 0.4786 0.6841 -0.5503
vn 0.2709 0.0362 -0.9619
vn 0.2229 -0.6215 -0.7510
vn 0.4550 -0.7647 -0.4564
vn 0.5932 -0.7398 -0.3177
vn 0.9132 -0.3632 -0.1848
vn 0.8596 0.3082 0.4075
vn 0.8979 0.2097 0.3871
vn 0.6104 0.7771 -0.1532
vn 0.6595 0.4120 0.6288
vn 0.5153 0.6861 0.5136
vn 0.3017 0.9332 -0.1952
vn 0.2673 0.5636 -0.7816
vn 0.4562 0.1418 -0.8785
vn 0.5669 -0.0664 -0.8211
vn 0.8934 -0.0082 -0.4492
vn 0.8414 -0.3595 0.4034
vn 0.5195 -0.3846 0.7630
vn 0.2846 0.3635 0.8871
vn 0.2615 0.9059 0.3332
vn 0.4043 0.9069 -0.1190
vn 0.8979 0.4389 -0.0346
vn 0.5350 0.7848 -0.3130
vn 0.8822 0.4495 -0.1405
vn 0.8667 -0.4985 0.0179
vn 0.8248 -0.5506 -0.1285
vn 0.4576 -0.8888 -0.0249
vn 0.5729 -0.7870 -0.2290
vn 0.6651 -0.5336 0.5224
vn 0.4355 0.3762 0.8178
vn 0.5652 0.4334 0.7019
vn 0.8858 0.1793 0.4281
vn 0.8826 0.0343 0.4688
vn 0.9041 -0.3288 0.2730
vn 0.2543 -0.7231 0.6423
vn 0.2476 0.0339 0.9683
vn 0.4442 0.5296 -0.7226
vn 0.9614 0.0496 -0.2706
vn 0.4445 0.1623 -0.8810
vn 0.9635 -0.0706 -0.2583
vn 0.4477 -0.2360 -0.8625
vn 0.9624 -0.1783 -0.2047
vn 0.4451 -0.5877 -0.6756
vn 0.9611 -0.2537 -0.1093
vn 0.4425 -0.8243 -0.3532
vn 0.9607 -0.2772 0.0129
vn 0.4427 -0.8960 0.0354
vn 0.9623 -0.2404 0.1270
vn 0.4460 -0.7909 0.4190
vn 0.9627 -0.1592 0.2186
vn 0.4466 -0.5270 0.7231
vn 0.9623 -0.0485 0.2677
vn 0.4451 -0.1609 0.8809
vn 0.9616 0.0726 0.2647
vn 0.4441 0.2359 0.8643
vn 0.9621 0.1797 0.2051
vn 0.4459 0.5858 0.6767
vn 0.9635 0.2459 0.1061
vn 0.4479 0.8211 0.3539
vn 0.9628 0.2701 -0.0112
vn 0.4462 0.8941 -0.0393
vn 0.9618 0.2411 -0.1299
vn 0.4443 0.7902 -0.4221
vn 0.9619 0.1627 -0.2195
vn 0.7082 -0.1148 0.6966
vn 0.7096 0.1674 0.6845
vn 0.7089 0.4744 0.5220
vn 0.7076 0.6439 0.2910
vn 0.7078 0.7049 -0.0451
vn 0.7086 0.6300 -0.3180
vn 0.7084 0.4061 -0.5773
vn 0.7107 0.1437 -0.6886
vn 0.7090 -0.2018 -0.6757
vn 0.7081 -0.4514 -0.5430
vn 0.7093 -0.6530 -0.2655
vn 0.7094 -0.7047 0.0166
vn 0.7082 -0.6148 0.3472
vn 0.7099 -0.4271 0.5600
vn -0.7959 -0.2395 0.5561
vn -0.7965 -0.5829 0.1607
vn -0.7963 -0.4887 -0.3564
vn -0.7960 -0.0260 -0.6048
vn -0.7974 0.4549 -0.3965
vn -0.7967 0.5945 0.1088
vn -0.7969 0.2843 0.5330
vn -0.3441 0.8282 -0.4423
vn -0.3443 0.9380 -0.0408
vn -0.3472 0.8615 0.3705
vn -0.3441 0.6146 0.7099
vn -0.3432 0.2458 0.9065
vn -0.3474 -0.1682 0.9225
vn -0.3505 -0.5513 0.7571
vn -0.3471 -0.8286 0.4393
vn -0.3444 -0.9381 0.0364
vn -0.3449 -0.8630 -0.3692
vn -0.3451 -0.6159 -0.7083
vn -0.3512 -0.2482 -0.9028
vn -0.3462 0.1699 -0.9226
vn -0.3411 0.5562 -0.7578
vn -0.9034 -0.1151 -0.4131
vn -0.9006 0.0793 -0.4273
vn -0.8972 0.2605 -0.3566
vn -0.8993 0.3853 -0.2071
vn -0.8989 0.4377 -0.0202
vn -0.9010 0.3988 0.1710
vn -0.8993 0.2875 0.3296
vn -0.8982 0.1148 0.4244
vn -0.9005 -0.0785 0.4276
vn -0.9028 -0.2527 0.3479
vn -0.9008 -0.3830 0.2044
vn -0.8994 -0.4368 0.0161
vn -0.8995 -0.4016 -0.1721
vn -0.8988 -0.2861 -0.3322
# 154 vertex normals

vt 0.1357 0.0015 0.0000
vt 0.0020 0.1357 0.0000
vt 0.0630 0.0259 0.0000
vt 0.0122 0.0840 0.0000
vt 0.1875 0.0117 0.0000
vt 0.2456 0.0625 0.0000
vt 0.2700 0.1357 0.0000
vt 0.1357 0.2695 0.0000
vt 0.0264 0.2085 0.0000
vt 0.0845 0.2593 0.0000
vt 0.2090 0.2451 0.0000
vt 0.2598 0.1870 0.0000
vt 0.9971 0.0171 0.0000
vt 0.9102 0.0454 0.0000
vt 0.9971 0.0024 0.0000
vt 0.9971 0.0083 0.0000
vt 0.9102 0.0581 0.0000
vt 0.9971 0.0391 0.0000
vt 0.9971 0.0835 0.0000
vt 0.9971 0.1143 0.0000
vt 0.9102 0.1211 0.0000
vt 0.9971 0.1494 0.0000
vt 0.9971 0.1641 0.0000
vt 0.9971 0.1582 0.0000
vt 0.9102 0.1084 0.0000
vt 0.9971 0.1274 0.0000
vt 0.9971 0.0522 0.0000
vt 0.6870 0.4531 0.0000
vt 0.6523 0.4810 0.0000
vt 0.6099 0.3901 0.0000
vt 0.5127 0.3828 0.0000
vt 0.5225 0.3413 0.0000
vt 0.5835 0.2949 0.0000
vt 0.6309 0.2920 0.0000
vt 0.5181 0.2402 0.0000
vt 0.5342 0.2339 0.0000
vt 0.4507 0.4189 0.0000
vt 0.4541 0.4380 0.0000
vt 0.5361 0.4551 0.0000
vt 0.5718 0.4775 0.0000
vt 0.6133 0.5493 0.0000
vt 0.5952 0.5488 0.0000
vt 0.7891 0.5376 0.0000
vt 0.7544 0.4844 0.0000
vt 0.8057 0.5044 0.0000
vt 0.7656 0.4639 0.0000
vt 0.6953 0.4595 0.0000
vt 0.6567 0.4902 0.0000
vt 0.6382 0.5508 0.0000
vt 0.6436 0.6152 0.0000
vt 0.5972 0.6167 0.0000
vt 0.5576 0.6128 0.0000
vt 0.5747 0.5454 0.0000
vt 0.5674 0.4863 0.0000
vt 0.5278 0.4614 0.0000
vt 0.4575 0.4609 0.0000
vt 0.4014 0.4810 0.0000
vt 0.3853 0.4458 0.0000
vt 0.3804 0.4087 0.0000
vt 0.8213 0.4736 0.0000
vt 0.5195 0.6006 0.0000
vt 0.3789 0.3667 0.0000
vt 0.4473 0.3955 0.0000
vt 0.5024 0.3818 0.0000
vt 0.5132 0.3359 0.0000
vt 0.4961 0.2495 0.0000
vt 0.4570 0.2197 0.0000
vt 0.4878 0.1958 0.0000
vt 0.5288 0.1738 0.0000
vt 0.5566 0.2246 0.0000
vt 0.5806 0.2852 0.0000
vt 0.6328 0.2812 0.0000
vt 0.7134 0.2422 0.0000
vt 0.7280 0.2583 0.0000
vt 0.7314 0.1938 0.0000
vt 0.7583 0.2197 0.0000
vt 0.7397 0.2715 0.0000
vt 0.7832 0.2432 0.0000
vt 0.7549 0.2876 0.0000
vt 0.8101 0.2690 0.0000
vt 0.5723 0.1572 0.0000
vt 0.7847 0.4287 0.0000
vt 0.8374 0.4404 0.0000
vt 0.7734 0.4492 0.0000
vt 0.7065 0.3799 0.0000
vt 0.6938 0.3438 0.0000
vt 0.7026 0.3384 0.0000
vt 0.7168 0.3784 0.0000
vt 0.2295 0.3862 0.0000
vt 0.3135 0.5347 0.0000
vt 0.2676 0.5571 0.0000
vt 0.4058 0.6533 0.0000
vt 0.3740 0.6943 0.0000
vt 0.5396 0.7197 0.0000
vt 0.5283 0.7705 0.0000
vt 0.6875 0.7197 0.0000
vt 0.6992 0.7705 0.0000
vt 0.8213 0.6533 0.0000
vt 0.8530 0.6943 0.0000
vt 0.9136 0.5347 0.0000
vt 0.9595 0.5571 0.0000
vt 0.9468 0.3862 0.0000
vt 0.9976 0.3862 0.0000
vt 0.9136 0.2383 0.0000
vt 0.9595 0.2153 0.0000
vt 0.8213 0.1191 0.0000
vt 0.8530 0.0786 0.0000
vt 0.6875 0.0532 0.0000
vt 0.6992 0.0024 0.0000
vt 0.5396 0.0532 0.0000
vt 0.5283 0.0024 0.0000
vt 0.4058 0.1191 0.0000
vt 0.3740 0.0786 0.0000
vt 0.3135 0.2383 0.0000
vt 0.2676 0.2153 0.0000
vt 0.2808 0.3862 0.0000
vt 0.3940 0.4946 0.0000
vt 0.4619 0.5815 0.0000
vt 0.5596 0.6299 0.0000
vt 0.6680 0.6299 0.0000
vt 0.7656 0.5815 0.0000
vt 0.8330 0.4946 0.0000
vt 0.8569 0.3862 0.0000
vt 0.8330 0.2783 0.0000
vt 0.7656 0.1914 0.0000
vt 0.6680 0.1431 0.0000
vt 0.5596 0.1431 0.0000
vt 0.4619 0.1914 0.0000
vt 0.3940 0.2783 0.0000
vt 0.3701 0.3862 0.0000
vt 0.2056 0.6367 0.0000
vt 0.2056 0.6548 0.0000
vt 0.0039 0.6553 0.0000
vt 0.0039 0.6187 0.0000
vt 0.2056 0.5859 0.0000
vt 0.2056 0.5127 0.0000
vt 0.0039 0.4717 0.0000
vt 0.2056 0.4312 0.0000
vt 0.2056 0.3579 0.0000
vt 0.0039 0.3252 0.0000
vt 0.2056 0.3071 0.0000
vt 0.2056 0.2891 0.0000
vt 0.0039 0.2886 0.0000
vt 0.0039 0.3901 0.0000
vt 0.0039 0.5532 0.0000
vt 0.2144 0.7773 0.0000
vt 0.4287 0.7773 0.0000
vt 0.2144 0.9995 0.0000
vt 0.4287 0.9995 0.0000
vt 0.6431 0.7773 0.0000
vt 0.6431 0.9995 0.0000
vt 0.8569 0.7773 0.0000
vt 0.8569 0.9995 0.0000
vt 1.0713 0.7773 0.0000
vt 1.0713 0.9995 0.0000
vt 1.2856 0.7773 0.0000
vt 1.2856 0.9995 0.0000
vt 1.5000 0.7773 0.0000
vt 1.5000 0.9995 0.0000
vt 1.7144 0.7773 0.0000
vt 1.7144 0.9995 0.0000
vt 1.9287 0.7773 0.0000
vt 1.9287 0.9995 0.0000
vt 2.1431 0.7773 0.0000
vt 2.1431 0.9995 0.0000
vt 2.3569 0.7773 0.0000
vt 2.3569 0.9995 0.0000
vt 2.5713 0.7773 0.0000
vt 2.5713 0.9995 0.0000
vt 2.7856 0.7773 0.0000
vt 2.7856 0.9995 0.0000
vt 3.0000 0.7773 0.0000
vt 3.0000 0.9995 0.0000
vt 3.2144 0.7773 0.0000
vt 3.2144 0.9995 0.0000
vt 0.5366 0.7710 0.0000
vt 0.4067 0.6680 0.0000
vt 0.3848 0.6963 0.0000
vt 0.3115 0.5454 0.0000
vt 0.2798 0.5610 0.0000
vt 0.2773 0.3926 0.0000
vt 0.2422 0.3926 0.0000
vt 0.3115 0.2402 0.0000
vt 0.2798 0.2241 0.0000
vt 0.4067 0.1177 0.0000
vt 0.3848 0.0894 0.0000
vt 0.5444 0.0493 0.0000
vt 0.5366 0.0142 0.0000
vt 0.6973 0.0493 0.0000
vt 0.7051 0.0142 0.0000
vt 0.8345 0.1177 0.0000
vt 0.8564 0.0894 0.0000
vt 0.9302 0.2402 0.0000
vt 0.9614 0.2241 0.0000
vt 0.9639 0.3926 0.0000
vt 0.9990 0.3926 0.0000
vt 0.9302 0.5454 0.0000
vt 0.9614 0.5610 0.0000
vt 0.8345 0.6680 0.0000
vt 0.8564 0.6963 0.0000
vt 0.6973 0.7358 0.0000
vt 0.7051 0.7710 0.0000
vt 0.5444 0.7358 0.0000
vt 0.5073 0.6343 0.0000
vt 0.3657 0.4526 0.0000
vt 0.4165 0.2256 0.0000
vt 0.6206 0.1245 0.0000
vt 0.8252 0.2256 0.0000
vt 0.8755 0.4526 0.0000
vt 0.7344 0.6343 0.0000
# 210 texture coords

o Llanta_delantera_derecha
g Llanta_delantera_derecha
usemtl Sally_Window
s 1
f 1/1/1 2/2/2 3/3/3 
f 2/2/2 4/4/4 3/3/3 
f 5/5/5 6/6/6 1/1/1 
f 6/6/6 7/7/7 1/1/1 
f 1/1/1 7/7/7 2/2/2 
f 7/7/7 8/8/8 2/2/2 
f 2/2/2 8/8/8 9/9/9 
f 8/8/8 10/10/10 9/9/9 
f 8/8/8 7/7/7 11/11/11 
f 11/11/11 7/7/7 12/12/12 
f 6/13/6 13/14/13 7/15/7 
f 7/15/7 13/14/13 12/16/12 
f 13/14/13 14/17/14 12/16/12 
f 12/16/12 14/17/14 11/18/11 
f 11/18/11 14/17/14 8/19/8 
f 8/19/8 14/17/14 10/20/10 
f 14/17/14 15/21/15 10/20/10 
f 10/20/10 15/21/15 9/22/9 
f 9/22/9 15/21/15 2/23/2 
f 2/23/2 15/21/15 4/24/4 
f 15/21/15 16/25/16 4/24/4 
f 4/24/4 16/25/16 3/26/3 
f 3/26/3 16/25/16 1/19/1 
f 1/19/1 16/25/16 5/27/5 
f 16/25/16 13/14/13 5/27/5 
f 5/27/5 13/14/13 6/13/6 
f 17/28/17 18/29/18 19/30/19 
f 20/31/20 21/32/21 19/30/19 
f 21/32/21 22/33/22 19/30/19 
f 19/30/19 22/33/22 23/34/23 
f 24/35/24 25/36/25 21/32/21 
f 25/36/25 22/33/22 21/32/21 
f 26/37/26 20/31/20 27/38/27 
f 27/38/27 20/31/20 28/39/28 
f 20/31/20 19/30/19 28/39/28 
f 28/39/28 19/30/19 29/40/29 
f 19/30/19 18/29/18 29/40/29 
f 18/29/18 30/41/30 29/40/29 
f 29/40/29 30/41/30 31/42/31 
f 32/43/32 33/44/33 34/45/34 
f 34/45/34 33/44/33 35/46/35 
f 33/44/33 36/47/36 35/46/35 
f 35/46/35 36/47/36 17/28/17 
f 36/47/36 37/48/37 17/28/17 
f 17/28/17 37/48/37 18/29/18 
f 37/48/37 38/49/38 18/29/18 
f 18/29/18 38/49/38 30/41/30 
f 38/49/38 39/50/39 30/41/30 
f 39/50/39 40/51/40 30/41/30 
f 30/41/30 40/51/40 31/42/31 
f 40/51/40 41/52/41 31/42/31 
f 41/52/41 42/53/42 31/42/31 
f 42/53/42 43/54/43 31/42/31 
f 31/42/31 43/54/43 29/40/29 
f 43/54/43 44/55/44 29/40/29 
f 29/40/29 44/55/44 28/39/28 
f 44/55/44 45/56/45 28/39/28 
f 28/39/28 45/56/45 27/38/27 
f 45/56/45 46/57/46 27/38/27 
f 46/57/46 47/58/47 27/38/27 
f 27/38/27 47/58/47 26/37/26 
f 47/58/47 48/59/48 26/37/26 
f 49/60/49 34/45/34 35/46/35 
f 41/52/41 50/61/50 42/53/42 
f 51/62/51 52/63/52 48/59/48 
f 48/59/48 52/63/52 26/37/26 
f 52/63/52 53/64/53 26/37/26 
f 26/37/26 53/64/53 20/31/20 
f 53/64/53 54/65/54 20/31/20 
f 20/31/20 54/65/54 21/32/21 
f 54/65/54 55/66/55 21/32/21 
f 21/32/21 55/66/55 24/35/24 
f 55/66/55 56/67/56 24/35/24 
f 56/67/56 57/68/57 24/35/24 
f 57/68/57 58/69/58 24/35/24 
f 24/35/24 58/69/58 25/36/25 
f 58/69/58 59/70/59 25/36/25 
f 59/70/59 60/71/60 25/36/25 
f 25/36/25 60/71/60 22/33/22 
f 60/71/60 61/72/61 22/33/22 
f 22/33/22 61/72/61 23/34/23 
f 61/72/61 62/73/62 23/34/23 
f 23/34/23 62/73/62 63/74/63 
f 62/73/62 64/75/64 63/74/63 
f 64/75/64 65/76/65 63/74/63 
f 63/74/63 65/76/65 66/77/66 
f 65/76/65 67/78/67 66/77/66 
f 66/77/66 67/78/67 68/79/68 
f 67/78/67 69/80/69 68/79/68 
f 58/69/58 70/81/70 59/70/59 
f 71/82/71 72/83/72 73/84/73 
f 72/83/72 49/60/49 73/84/73 
f 49/60/49 35/46/35 73/84/73 
f 35/46/35 17/28/17 73/84/73 
f 73/84/73 17/28/17 74/85/74 
f 17/28/17 19/30/19 74/85/74 
f 74/85/74 19/30/19 75/86/75 
f 19/30/19 23/34/23 75/86/75 
f 23/34/23 63/74/63 75/86/75 
f 63/74/63 66/77/66 75/86/75 
f 75/86/75 66/77/66 76/87/76 
f 66/77/66 68/79/68 76/87/76 
f 73/84/73 74/85/74 71/82/71 
f 71/82/71 74/85/74 77/88/77 
f 74/85/74 75/86/75 77/88/77 
f 77/88/77 75/86/75 76/87/76 
f 78/89/78 79/90/79 80/91/80 
f 79/90/79 81/92/81 80/91/80 
f 80/91/80 81/92/81 82/93/82 
f 81/92/81 83/94/83 82/93/82 
f 82/93/82 83/94/83 84/95/84 
f 83/94/83 85/96/85 84/95/84 
f 84/95/84 85/96/85 86/97/86 
f 85/96/85 87/98/87 86/97/86 
f 86/97/86 87/98/87 88/99/88 
f 87/98/87 89/100/89 88/99/88 
f 88/99/88 89/100/89 90/101/90 
f 89/100/89 91/102/91 90/101/90 
f 90/101/90 91/102/91 92/103/92 
f 91/102/91 93/104/93 92/103/92 
f 92/103/92 93/104/93 94/105/94 
f 93/104/93 95/106/95 94/105/94 
f 94/105/94 95/106/95 96/107/96 
f 95/106/95 97/108/97 96/107/96 
f 96/107/96 97/108/97 98/109/98 
f 97/108/97 99/110/99 98/109/98 
f 98/109/98 99/110/99 100/111/100 
f 99/110/99 101/112/101 100/111/100 
f 100/111/100 101/112/101 102/113/102 
f 101/112/101 103/114/103 102/113/102 
f 102/113/102 103/114/103 104/115/104 
f 103/114/103 105/116/105 104/115/104 
f 104/115/104 105/116/105 78/89/78 
f 78/89/78 105/116/105 79/90/79 
f 105/116/105 106/117/106 79/90/79 
f 106/117/106 107/118/107 79/90/79 
f 79/90/79 107/118/107 81/92/81 
f 107/118/107 108/119/108 81/92/81 
f 81/92/81 108/119/108 83/94/83 
f 108/119/108 109/120/109 83/94/83 
f 83/94/83 109/120/109 85/96/85 
f 109/120/109 110/121/110 85/96/85 
f 85/96/85 110/121/110 87/98/87 
f 110/121/110 111/122/111 87/98/87 
f 87/98/87 111/122/111 89/100/89 
f 111/122/111 112/123/112 89/100/89 
f 89/100/89 112/123/112 91/102/91 
f 112/123/112 113/124/113 91/102/91 
f 91/102/91 113/124/113 93/104/93 
f 113/124/113 114/125/114 93/104/93 
f 93/104/93 114/125/114 95/106/95 
f 114/125/114 115/126/115 95/106/95 
f 95/106/95 115/126/115 97/108/97 
f 115/126/115 116/127/116 97/108/97 
f 97/108/97 116/127/116 99/110/99 
f 116/127/116 117/128/117 99/110/99 
f 99/110/99 117/128/117 101/112/101 
f 117/128/117 118/129/118 101/112/101 
f 101/112/101 118/129/118 103/114/103 
f 118/129/118 119/130/119 103/114/103 
f 103/114/103 119/130/119 105/116/105 
f 119/130/119 106/117/106 105/116/105 
f 106/131/106 119/132/119 120/133/120 
f 119/132/119 118/131/118 120/133/120 
f 120/133/120 118/131/118 121/134/121 
f 118/131/118 117/135/117 121/134/121 
f 117/135/117 116/136/116 121/134/121 
f 121/134/121 116/136/116 122/137/122 
f 116/136/116 115/138/115 122/137/122 
f 115/138/115 114/139/114 122/137/122 
f 122/137/122 114/139/114 123/140/123 
f 114/139/114 113/141/113 123/140/123 
f 113/141/113 112/142/112 123/140/123 
f 123/140/123 112/142/112 124/143/124 
f 112/142/112 111/141/111 124/143/124 
f 111/141/111 110/139/110 124/143/124 
f 124/143/124 110/139/110 125/144/125 
f 110/139/110 109/138/109 125/144/125 
f 109/138/109 108/136/108 125/144/125 
f 125/144/125 108/136/108 126/145/126 
f 108/136/108 107/135/107 126/145/126 
f 107/135/107 106/131/106 126/145/126 
f 126/145/126 106/131/106 120/133/120 
f 127/146/127 128/147/128 104/148/104 
f 104/148/104 128/147/128 102/149/102 
f 128/147/128 129/150/129 102/149/102 
f 102/149/102 129/150/129 100/151/100 
f 129/150/129 130/152/130 100/151/100 
f 100/151/100 130/152/130 98/153/98 
f 130/152/130 131/154/131 98/153/98 
f 98/153/98 131/154/131 96/155/96 
f 131/154/131 132/156/132 96/155/96 
f 96/155/96 132/156/132 94/157/94 
f 132/156/132 133/158/133 94/157/94 
f 94/157/94 133/158/133 92/159/92 
f 133/158/133 134/160/134 92/159/92 
f 92/159/92 134/160/134 90/161/90 
f 134/160/134 135/162/135 90/161/90 
f 90/161/90 135/162/135 88/163/88 
f 135/162/135 136/164/136 88/163/88 
f 88/163/88 136/164/136 86/165/86 
f 136/164/136 137/166/137 86/165/86 
f 86/165/86 137/166/137 84/167/84 
f 137/166/137 138/168/138 84/167/84 
f 84/167/84 138/168/138 82/169/82 
f 138/168/138 139/170/139 82/169/82 
f 82/169/82 139/170/139 80/171/80 
f 139/170/139 140/172/140 80/171/80 
f 80/171/80 140/172/140 78/173/78 
f 140/172/140 127/174/127 78/173/78 
f 78/173/78 127/174/127 104/175/104 
f 137/176/137 141/177/141 138/178/138 
f 141/177/141 142/179/142 138/178/138 
f 138/178/138 142/179/142 139/180/139 
f 142/179/142 143/181/143 139/180/139 
f 139/180/139 143/181/143 140/182/140 
f 143/181/143 144/183/144 140/182/140 
f 140/182/140 144/183/144 127/184/127 
f 144/183/144 145/185/145 127/184/127 
f 127/184/127 145/185/145 128/186/128 
f 145/185/145 146/187/146 128/186/128 
f 128/186/128 146/187/146 129/188/129 
f 146/187/146 147/189/147 129/188/129 
f 129/188/129 147/189/147 130/190/130 
f 147/189/147 148/191/148 130/190/130 
f 130/190/130 148/191/148 131/192/131 
f 148/191/148 149/193/149 131/192/131 
f 131/192/131 149/193/149 132/194/132 
f 149/193/149 150/195/150 132/194/132 
f 132/194/132 150/195/150 133/196/133 
f 150/195/150 151/197/151 133/196/133 
f 133/196/133 151/197/151 134/198/134 
f 151/197/151 152/199/152 134/198/134 
f 134/198/134 152/199/152 135/200/135 
f 152/199/152 153/201/153 135/200/135 
f 135/200/135 153/201/153 136/202/136 
f 153/201/153 154/203/154 136/202/136 
f 136/202/136 154/203/154 137/176/137 
f 137/176/137 154/203/154 141/177/141 
f 154/203/154 126/204/126 141/177/141 
f 126/204/126 120/205/120 141/177/141 
f 141/177/141 120/205/120 142/179/142 
f 142/179/142 120/205/120 143/181/143 
f 120/205/120 121/206/121 143/181/143 
f 143/181/143 121/206/121 144/183/144 
f 144/183/144 121/206/121 145/185/145 
f 121/206/121 122/207/122 145/185/145 
f 145/185/145 122/207/122 146/187/146 
f 146/187/146 122/207/122 147/189/147 
f 122/207/122 123/208/123 147/189/147 
f 147/189/147 123/208/123 148/191/148 
f 148/191/148 123/208/123 149/193/149 
f 123/208/123 124/209/124 149/193/149 
f 149/193/149 124/209/124 150/195/150 
f 150/195/150 124/209/124 151/197/151 
f 124/209/124 125/210/125 151/197/151 
f 151/197/151 125/210/125 152/199/152 
f 152/199/152 125/210/125 153/201/153 
f 125/210/125 126/204/126 153/201/153 
f 153/201/153 126/204/126 154/203/154 
# 0 polygons - 260 triangles

